# Blender v2.76 (sub 0) OBJ File: 'wall.blend'
# www.blender.org
mtllib wall.mtl
o CinderblockSloppy0005_1_S
v -1.042384 -2.000000 0.000000
v 2.957616 -2.000000 0.000000
v -1.042384 2.000000 0.000000
v 2.957616 2.000000 0.000000
v -1.042384 -2.000000 -0.200000
v 2.957616 -2.000000 -0.200000
v -1.042384 2.000000 -0.200000
v 2.957616 2.000000 -0.200000
vt -0.500000 -0.500000
vt 1.500000 -0.500000
vt 1.500000 1.500000
vt -0.500000 1.500000
vt 0.000000 0.000000
vt 1.000000 0.000000
vt 1.000000 1.000000
vt 0.000000 1.000000
vt 0.000000 0.000000
vt 1.000000 0.000000
vt 1.000000 1.000000
vt 0.000000 1.000000
vt 0.000000 0.000000
vt 1.000000 0.000000
vt 1.000000 1.000000
vt 0.000000 1.000000
vn 0.000000 0.000000 1.000000
vn 0.000000 0.000000 -1.000000
vn -1.000000 0.000000 0.000000
vn 1.000000 0.000000 0.000000
vn 0.000000 1.000000 0.000000
vn 0.000000 -1.000000 0.000000
usemtl CinderblockSloppy0005_1_S
s off
f 1/1/1 2/2/1 4/3/1 3/4/1
f 6/2/2 5/1/2 7/4/2 8/3/2
f 5/5/3 1/6/3 3/7/3 7/8/3
f 2/9/4 6/10/4 8/11/4 4/12/4
f 3/13/5 4/14/5 8/15/5 7/16/5
f 5/9/6 6/10/6 2/11/6 1/12/6
